<?xml version="1.0" encoding="utf-8"?>
<!-- Generator: Adobe Illustrator 16.0.0, SVG Export Plug-In . SVG Version: 6.00 Build 0)  -->
<!DOCTYPE svg PUBLIC "-//W3C//DTD SVG 1.1//EN" "http://www.w3.org/Graphics/SVG/1.1/DTD/svg11.dtd">
<svg version="1.1" id="Layer_1" xmlns="http://www.w3.org/2000/svg" xmlns:xlink="http://www.w3.org/1999/xlink" x="0px" y="0px"
	 width="289.689px" height="170.547px" viewBox="0 0 289.689 170.547" enable-background="new 0 0 289.689 170.547"
	 xml:space="preserve">
<g>
	<g>
		<path d="M70.155,157.754c1.106-2.918,2.204-5.816,3.343-8.818c-0.469-0.021-0.772-0.047-1.082-0.047
			c-7.916-0.006-15.832,0.01-23.746-0.035c-0.818-0.004-1.108,0.34-1.345,0.992c-0.7,1.932-1.377,3.877-2.146,5.783
			c-1.388,3.434-3.05,6.678-5.314,9.684c-2.003,2.65-4.51,4.134-7.562,5.009c-1.653,0.471-3.256,0.139-4.813-0.341
			c-2.063-0.637-4.22-1.147-6.106-2.145c-3.196-1.684-5.658-4.055-6.431-7.902c-0.604-3.008-0.366-5.91,0.742-8.621
			c1.485-3.612,4.059-6.229,7.896-7.674c2.208-0.832,4.414-0.82,6.617-0.914c4.271-0.174,8.552-0.049,12.839-0.049
			c9.269-23.869,18.524-47.719,27.821-71.667c-2.514,0-4.831,0.016-7.146-0.004c-3.341-0.027-6.684-0.151-10.021-0.097
			c-1.356,0.022-2.852,0.125-4.034,0.7c-1.979,0.96-2.59,3.026-3.29,5.015c-0.859,2.448,0.134,4.298,1.566,6.005
			c1.257,1.501,2.914,2.487,4.923,2.762c0.231,0.031,0.451,0.177,0.771,0.308c-0.135,2.049-0.269,4.129-0.403,6.286
			c-2.323,0-4.483-0.324-6.427-1.482c-1.344-0.799-2.76-1.568-3.873-2.633c-2.458-2.345-3.663-5.336-3.764-8.736
			c-0.122-4.137,1.442-7.734,3.728-11.06c0.382-0.555,1.009-1.018,1.625-1.318c2.507-1.225,4.918-2.741,7.743-3.146
			c3.173-0.456,6.331-0.739,9.569-0.173c2.317,0.404,4.741,0.212,7.117,0.306c1.233,0.049,2.466,0.173,3.699,0.188
			c0.306,0,0.798-0.237,0.89-0.484c1.196-3.122,2.328-6.27,3.491-9.404c0.426-1.146,0.893-2.277,1.345-3.414
			c1.33-3.341,2.646-6.687,3.997-10.02c0.864-2.141,1.794-4.257,2.673-6.394c0.903-2.192,1.73-4.418,2.675-6.592
			c1.652-3.823,3.438-7.592,5.034-11.435c0.818-1.968,1.365-4.046,2.022-6.08c0.168-0.528,0.292-1.069,0.479-1.764
			c-1.881,0.005-3.604,0.297-5.104,1.33c-2.605,1.787-4.647,4.154-6.633,6.586c-2.23,2.736-4.582,5.375-6.786,8.132
			c-0.955,1.189-1.669,2.572-2.501,3.86c-0.851,1.321-1.701,2.645-2.572,3.953c-1.322,1.987-2.696,3.938-3.979,5.947
			c-1.237,1.934-2.383,3.924-3.581,5.883c-2.679,4.366-5.362,8.726-8.035,13.092c-0.586,0.955-1.229,1.89-1.665,2.91
			c-0.385,0.896-1.189,0.864-1.77,0.816c-1.706-0.144-4.123-0.044-5.734-0.235c-0.442-0.103-0.617-1.205-0.725-1.67
			c-0.982-4.292-1.596-8.695-2.514-13.002c-0.933-4.382-1.771-8.786-2.805-13.143c-0.82-3.458-1.931-6.846-2.806-10.29
			c-0.456-1.792-0.674-3.642-1.021-5.458c-0.094-0.471-0.287-0.919-0.577-1.404c-6.426,15.68-12.4,31.506-18.344,47.428
			c2.378,0,4.813,0,7.308,0c0,2.302,0,4.499,0,6.779c-8.118,0-16.254,0-24.467,0c0-2.221,0-4.412,0-6.714
			C1.264,63.128,1.604,63.1,1.945,63.1c2.532-0.006,5.062-0.023,7.593,0.009c0.644,0.007,0.976-0.146,1.225-0.809
			c1.225-3.234,2.483-6.455,3.804-9.651c1.571-3.812,3.265-7.575,4.806-11.398c0.861-2.132,1.446-4.374,2.291-6.512
			c1.091-2.771,2.358-5.466,3.476-8.224c0.64-1.582,1.112-3.229,1.685-4.842c1.49-4.209,2.995-8.413,4.485-12.622
			c0.159-0.456,0.271-0.932,0.438-1.508c-0.604,0-1.119-0.011-1.628,0.001c-1.146,0.032-2.288,0.088-3.433,0.11
			c-1.898,0.035-3.797,0.037-5.697,0.081c-1.335,0.032-2.671,0.158-4.006,0.159c-2.58,0.003-4.908,0.856-7.05,2.163
			c-2.22,1.349-3.682,3.191-3.53,6.047c0.097,1.81,1.184,3.005,2.356,3.953c1.264,1.018,2.906,1.566,4.396,2.294
			c0.208,0.103,0.484,0.103,0.728,0.094c1.778-0.065,2.06,0.329,1.581,2.066c-0.331,1.204-0.589,2.431-0.843,3.652
			c-0.154,0.739-0.598,1.055-1.294,0.9c-2.862-0.635-5.643-1.469-8.112-3.161c-1.805-1.233-2.953-2.917-3.76-4.884
			c-0.771-1.876-1.502-3.743-1.451-5.846C0.089,11.417,1.3,8.16,3.762,5.284C5.169,3.64,6.621,2.115,8.733,1.54
			c2.076-0.565,4.197-1.117,6.329-1.285c3.316-0.262,6.663-0.263,9.997-0.251c8.62,0.03,17.237,0.129,25.854,0.202
			c0.175,0.002,0.351,0.02,0.589,0.034c0,2.326,0,4.619,0,6.991c-3.433,0-6.843,0-10.389,0c0.504,2.408,0.99,4.716,1.469,7.023
			c0.583,2.827,1.078,5.675,1.771,8.475c0.59,2.402,1.515,4.724,2.095,7.128c1.073,4.44,1.971,8.92,3.003,13.369
			c0.426,1.835,1.025,3.627,1.513,5.448c0.191,0.709,0.293,1.44,0.513,2.546c1.043-1.734,2.045-3.179,2.823-4.734
			c1.305-2.597,2.441-5.266,4.479-7.43c0.64-0.675,1.017-1.595,1.543-2.379c1.326-1.978,2.707-3.921,3.999-5.922
			c0.866-1.344,1.492-2.85,2.443-4.128c2.386-3.214,4.84-6.387,7.373-9.489c2.169-2.651,4.458-5.208,6.749-7.755
			c0.766-0.852,1.681-1.572,2.555-2.319c1.58-1.356,3.143-2.74,4.785-4.015c1.476-1.144,3.251-1.718,5.087-1.747
			c5.118-0.079,10.241-0.024,15.358-0.021c0.104,0,0.205,0.034,0.375,0.06c0,2.224,0,4.444,0,6.765
			c-1.549,0-3.069,0.003-4.595-0.001c-0.518-0.002-1.05-0.094-1.549,0.003c-0.251,0.049-0.521,0.397-0.631,0.671
			c-1.442,3.61-2.825,7.244-4.288,10.845c-1.92,4.72-3.951,9.396-5.827,14.133c-0.83,2.1-1.347,4.324-2.098,6.461
			c-0.766,2.167-1.597,4.315-2.479,6.438c-1.368,3.293-2.85,6.542-4.204,9.841c-0.993,2.416-1.854,4.886-2.835,7.484
			c3.461,0,6.659,0,9.91,0c0,2.341,0,4.608,0,6.965c-4.117,0-8.238,0-12.644,0c-9.677,23.734-18.678,47.763-28.427,71.731
			c0.672,0,1.048,0,1.425,0c5.134,0,10.271-0.024,15.402,0.009c2.941,0.021,5.884,0.114,8.824,0.221
			c0.683,0.022,1.117-0.125,1.354-0.814c0.48-1.426,1.043-2.82,1.521-4.246c0.479-1.428,0.727-1.574,2.195-1.197
			c1.538,0.394,3.081,0.752,4.787,1.166c-1.341,3.57-2.615,7.017-3.931,10.441c-0.551,1.436-1.189,2.828-1.772,4.248
			c-0.862,2.104-1.706,4.213-2.572,6.314c-0.546,1.33-0.742,1.404-2.061,0.871c-1.387-0.562-2.771-1.129-4.149-1.697
			C70.348,157.967,70.307,157.898,70.155,157.754z M40.711,148.879c-0.667,0-1.225-0.008-1.786,0
			c-3.836,0.07-7.673,0.129-11.509,0.23c-0.465,0.014-1.022,0.139-1.367,0.422c-1.008,0.828-2.058,1.666-2.858,2.68
			c-2.141,2.697-1.538,7.033,1.211,8.76c1.066,0.668,2.282,1.187,3.5,1.498c3.331,0.861,5.802,0.252,7.874-2.52
			C38.212,156.682,39.457,152.844,40.711,148.879z"/>
		<path d="M167.603,21.601c-1.445,0-2.933,0-4.571,0c0-2.001-0.038-3.948,0.021-5.889c0.021-0.661,0.602-0.758,1.188-0.755
			c2.104,0.018,4.203,0.007,6.353,0.007c1.117-3.02,2.226-6.021,3.327-9.024c0.101-0.26,0.162-0.532,0.225-0.804
			c0.371-1.664-0.255-1.958,2.182-1.372c1.696,0.408,3.401,0.776,5.104,1.144c0.722,0.154,1.062,0.845,0.691,1.759
			c-0.76,1.888-1.587,3.748-2.39,5.62c-0.425,0.994-0.851,1.985-1.322,3.09c3.825,0,7.513,0,11.274,0c0,2.077,0,4.085,0,6.219
			c-0.523,0-1.052,0-1.57,0c-3.563,0-7.131,0.072-10.694-0.037c-1.329-0.039-1.959,0.452-2.444,1.6
			c-0.997,2.346-2.138,4.633-3.172,6.965c-1.805,4.066-3.659,8.112-5.331,12.233c-1.922,4.734-3.718,9.519-5.448,14.324
			c-0.657,1.812-0.986,3.709-0.594,5.703c0.378,1.932,2.376,3.372,4.582,2.807c1.432-0.365,2.768-1.113,4.106-1.766
			c0.243-0.117,0.494-0.657,0.42-0.91c-1.007-3.426-0.551-6.884-0.417-10.359c0.216-5.562,2.249-10.499,4.865-15.261
			c1.333-2.424,2.747-4.826,4.67-6.834c2.723-2.835,5.848-5.169,9.818-5.795c2.562-0.403,4.999,0.481,7.199,1.863
			c1.095,0.684,2.327,1.234,3.22,2.125c1.429,1.428,2.858,2.959,3.829,4.702c0.633,1.129,0.447,2.717,0.668,4.4
			c0.849-0.836,1.623-1.533,2.317-2.305c2.276-2.539,4.602-5.047,6.762-7.689c1.323-1.62,2.413-3.442,3.542-5.217
			c0.447-0.705,0.718-1.119,1.699-0.644c0.947,0.456,2.095,0.493,3.146,0.734c1.534,0.352,1.63,0.491,1.436,2.213
			c1.141-0.088,2.241-0.223,3.35-0.252c2.164-0.057,4.204,0.442,5.961,1.729c1.364,1.002,2.649,2.109,3.91,3.242
			c1.162,1.046,1.734,2.439,1.946,3.972c0.622,4.548-0.265,8.842-1.892,13.106c-2.132,5.588-4.065,11.253-5.915,16.942
			c-0.692,2.141-1.12,4.423-1.27,6.667c-0.116,1.784,0.768,3.427,2.267,4.551c0.905,0.679,1.637,1.497,2.896,1.809
			c2.365,0.588,4.023-0.467,5.421-1.968c1.133-1.216,1.901-2.767,2.813-4.179c0.368-0.566,0.687-1.162,1.089-1.85
			c1.69,0.748,3.362,1.488,5.313,2.354c-1.021,1.791-1.855,3.604-3.011,5.187c-1.899,2.616-4.341,4.655-7.245,6.191
			c-3.062,1.621-6.097,1.467-9.096,0.123c-1.93-0.866-3.963-1.739-5.102-3.729c-1.866-3.26-3.369-6.663-2.268-10.504
			c0.603-2.099,1.678-4.058,2.446-6.115c0.711-1.893,1.279-3.841,1.944-5.756c1.567-4.546,3.267-9.054,4.702-13.643
			c0.834-2.655,0.532-5.429-0.437-8.023c-0.286-0.771-1.171-1.395-1.896-1.917c-2.438-1.738-5.24-1.635-7.724,0.168
			c-0.421,0.308-0.891,0.548-1.34,0.82c-1.283,0.781-1.56,2.18-1.998,3.428c-1.336,3.793-2.649,7.58-4.369,11.237
			c-1.418,3.024-2.36,6.272-3.585,9.394c-1.082,2.753-2.267,5.468-3.399,8.202c-0.639,1.544-1.353,3.065-1.863,4.651
			c-0.286,0.87-0.764,0.871-1.352,0.604c-1.399-0.64-2.785-1.32-4.121-2.077c-0.229-0.124-0.337-0.774-0.23-1.091
			c0.51-1.486,1.082-2.955,1.688-4.407c0.934-2.246,1.939-4.463,2.862-6.713c1.02-2.487,2.017-4.983,2.948-7.503
			c0.785-2.119,1.46-4.276,2.273-6.678c-1.465,0.735-2.721,1.365-3.973,1.992c-0.626,0.31-1.271,0.584-1.87,0.938
			c-0.265,0.157-0.516,0.443-0.626,0.729c-0.621,1.581-1.15,3.198-1.799,4.768c-1.008,2.45-2.009,4.909-3.156,7.294
			c-0.816,1.691-1.727,3.373-2.854,4.868c-1.438,1.911-2.998,3.774-4.759,5.387c-1.944,1.783-4.227,3.042-7.017,3.293
			c-2.885,0.262-5.438-0.535-7.884-1.896c-0.513-0.286-0.937-0.735-1.402-1.11c-1.402,0.77-2.781,1.597-4.226,2.297
			c-1.874,0.913-3.907,0.762-5.896,0.625c-1.219-0.085-2.492-0.196-3.606-0.635c-2.146-0.843-4.235-1.877-5.289-4.251
			c-0.993,0.805-1.931,1.72-3.012,2.406c-3.171,2.01-6.568,3.208-10.288,1.7c-2.104-0.852-3.956-2.134-4.967-4.342
			c-0.244-0.528-0.75-0.933-1.025-1.262c-1.867,1.549-3.662,3.187-5.611,4.613c-2.231,1.632-4.815,2.642-7.566,2.804
			c-1.456,0.085-3.009-0.332-4.421-0.812c-1.736-0.588-3.479-1.31-5.011-2.298c-0.941-0.609-1.507-1.818-2.214-2.777
			c-0.266-0.354-0.46-0.764-0.826-1.389c-3.085,4.771-7.904,5.187-12.859,5.678c0-2.228-0.018-4.39,0.028-6.55
			c0.003-0.182,0.437-0.535,0.629-0.511c3.05,0.396,4.825-1.471,6.507-3.563c1.952-2.429,4.056-4.745,5.864-7.272
			c2.144-2.993,3.673-6.354,5.133-9.726c1.056-2.436,2.149-6.18,3.12-8.651c0.654-1.679,0.833-2.074,1.394-3.787
			c0.233-0.721,0.5-1.372,0.714-2.288c1.012-2.671,1.248-2.694,3.065-2.114c1.029,0.329,2.089,0.571,3.095,0.953
			c0.872,0.329,1.191,0.833,0.683,1.874c-1.301,2.667-2.518,5.383-3.623,8.137c-1.773,4.416-3.438,8.877-5.136,13.324
			c-1.218,3.182-1.867,6.509-2.429,9.852c-0.213,1.266,0.707,2.773,1.685,3.354c3.021,1.795,5.732,1.036,8.106-1.108
			c1.987-1.796,3.681-3.91,5.597-5.793c1.085-1.065,0.722-2.291,0.58-3.445c-0.469-3.869-0.81-7.729-0.395-11.629
			c0.17-1.584,0.061-3.198,0.266-4.773c0.441-3.408,0.745-6.87,1.599-10.182c0.89-3.465,2.346-6.783,3.574-10.156
			c0.146-0.385,0.456-0.707,0.685-1.064c1.138-1.813,2.344-3.59,3.396-5.453c1.584-2.806,4.111-4.653,6.402-6.787
			c1.997-1.861,4.314-2.232,6.767-2.375c1.898-0.113,3.5,0.947,4.779,2.147c1.573,1.473,3.013,3.202,3.221,5.507
			c0.11,1.191,0.078,2.422-0.081,3.608c-0.297,2.206-0.652,4.407-1.128,6.58c-0.452,2.077-0.947,4.167-1.683,6.153
			c-0.703,1.893-1.729,3.665-2.643,5.477c-1.005,2.004-2.012,4.009-3.079,5.982c-0.583,1.077-1.313,2.075-1.939,3.132
			c-0.803,1.354-1.556,2.736-2.344,4.098c-1.067,1.846-2.149,3.684-3.226,5.524c-0.688,1.181-1.317,2.398-2.074,3.535
			c-1.175,1.763-2.446,3.461-3.646,5.213c-0.177,0.257-0.297,0.693-0.201,0.966c0.808,2.326,1.884,4.539,4.157,5.727
			c0.602,0.313,1.708-0.003,2.438-0.339c2.434-1.108,3.906-3.218,5.242-5.42c1.163-1.914,2.241-3.882,3.458-5.763
			c2.021-3.136,3.489-6.535,4.903-9.956c1.399-3.389,2.744-6.8,4.076-10.216c0.549-1.4,0.981-2.839,1.492-4.251
			C165.782,26.55,166.688,24.102,167.603,21.601z M189.858,31.779c-0.105-0.069-0.208-0.134-0.312-0.201
			c-1.069,0.405-2.345,0.571-3.168,1.268c-1.598,1.357-3.24,2.83-4.327,4.587c-1.584,2.562-2.878,5.348-3.955,8.167
			c-1.155,3.014-2.831,5.917-2.704,9.326c0.06,1.614-0.188,3.271,0.092,4.841c0.438,2.453,2.182,4.023,4.469,4.766
			c2.311,0.751,4.346-0.179,5.848-1.92c1.396-1.614,2.539-3.449,3.764-5.206c2.146-3.077,3.735-6.401,4.3-10.161
			c-0.612-0.26-1.284-0.535-1.945-0.834c-2.496-1.132-3.854-3.021-3.627-5.812c0.131-1.63,0.441-3.249,0.729-4.863
			C189.251,34.408,189.572,33.096,189.858,31.779z M137.531,46.694c0.067,0.021,0.138,0.042,0.205,0.064
			c0.208-0.346,0.406-0.701,0.629-1.037c1.842-2.777,3.733-5.522,5.52-8.335c1.521-2.392,3.018-4.81,4.342-7.312
			c1.174-2.219,2.024-4.61,3.148-6.859c1.422-2.844,3.057-5.588,3.203-8.894c0.053-1.183,0.305-2.356,0.371-3.537
			c0.057-1.061-0.862-2.021-1.884-1.761c-1.114,0.285-2.376,0.714-3.146,1.499c-1.765,1.796-3.472,3.714-4.823,5.825
			c-1.906,2.972-2.98,6.352-3.999,9.737c-1.353,4.508-2.632,9.017-2.922,13.75c-0.069,1.156-0.274,2.3-0.386,3.454
			C137.68,44.42,137.616,45.557,137.531,46.694z M196.36,35.108c-2.765,3.335-1.789,4.896,0.421,4.815
			C197.216,38.327,197.198,36.796,196.36,35.108z"/>
		<path d="M174.964,148.049c-1.966,1.285-3.829,2.744-5.896,3.799c-2.241,1.139-4.716,1.226-7.251,0.971
			c-2.184-0.223-4.041-1.016-5.586-2.432c-2.489-2.283-4.564-4.887-5.186-8.361c-0.084-0.479-0.187-0.957-0.293-1.498
			c-0.219,0.095-0.46,0.32-0.576,0.439c-1.354,1.4-2.604,2.336-4.104,3.379c-1.673,1.162-3.2,2.551-4.95,3.57
			c-2.22,1.295-4.458,2.814-7.035,3.146c-4.083,0.521-8.225,0.521-11.332-2.824c-2.19-2.358-4.11-5.202-3.938-8.627
			c0.103-2.032,0.179-4.036,0.631-5.981c0.676-2.879,1.839-5.646,2.808-8.457c0.21-0.619,0.484-1.219,0.755-1.892
			c-1.042,0.05-1.436,0.531-1.736,1.453c-0.962,2.963-1.985,5.896-3.688,8.568c-1.329,2.09-2.312,4.395-3.528,6.559
			c-1.907,3.38-4.176,6.438-7.312,8.854c-1.833,1.412-3.737,2.348-6.005,2.049c-2.472-0.324-4.84-1.16-6.932-2.562
			c-2.271-1.523-3.867-3.591-4.813-6.188c-1.357-3.736-1.423-7.617-1.213-11.486c0.098-1.748,0.761-3.469,1.238-5.185
			c0.742-2.653,1.269-5.418,2.398-7.899c1.29-2.846,3.116-5.451,4.771-8.127c0.494-0.806,1.172-1.498,1.779-2.23
			c2.408-2.904,5.538-4.523,9.231-5.014c1.108-0.146,2.285-0.01,3.397,0.188c1.366,0.246,2.741,0.589,4.046,1.074
			c2.356,0.879,4.1,2.608,5.524,4.604c1.001,1.408,1.429,2.201,2.04,3.847c0.504,1.17,0.637,1.813,0.813,3.022
			c0.012,0.353,0.188,1.418,0.225,1.928c0.482-0.508,0.989-0.995,1.449-1.522c3.502-4.047,7.538-7.412,12.438-9.642
			c2.278-1.034,4.678-1.243,7.192-1.09c2.107,0.129,3.97,0.724,5.811,1.644c2.92,1.459,4.999,5.556,4.253,9.254
			c-0.255,1.265-0.391,2.608-0.82,3.824c-0.113,0.323-0.272,0.795-0.555,0.752c-2.21-0.343-4.405-0.789-6.723-1.228
			c0.202-1.19,0.438-2.311,0.573-3.438c0.194-1.631-0.966-3.89-2.616-4.435c-1.966-0.645-3.967-0.655-5.809,0.035
			c-1.174,0.439-2.146,1.537-3.073,2.473c-2.108,2.134-3.28,4.865-4.432,7.566c-1.439,3.371-2.788,6.785-4.056,10.23
			c-0.709,1.92-1.128,3.68-1.501,5.906c-0.377,2.522,0.34,3.59,1.676,4.928c1.968,1.969,4.464,1.875,6.892,1.361
			c3.928-0.832,7.259-2.943,10.355-5.404c1.842-1.467,3.58-3.062,5.403-4.549c1.859-1.519,2.082-3.729,2.604-5.822
			c0.934-3.779,2.217-7.424,3.812-10.988c2.125-4.74,5.604-8.201,10.015-10.596c4.689-2.547,9.614-2.621,14.297,0.32
			c1.271,0.805,2.398,1.846,3.6,2.779c0.243-0.826,0.438-1.597,0.7-2.351c0.223-0.647,0.648-0.873,1.354-0.591
			c1.588,0.642,3.181,1.255,4.787,1.826c0.805,0.285,0.912,0.681,0.569,1.439c-1.518,3.377-2.979,6.781-4.483,10.166
			c-0.524,1.18-1.205,2.297-1.672,3.496c-0.916,2.338-1.719,4.723-2.592,7.076c-0.562,1.51-1.287,2.965-1.725,4.506
			c-0.867,3.086-0.912,6.135,0.682,9.086c1.061,1.971,3.783,2.809,6.135,1.707c2.124-0.998,4.002-2.299,5.345-4.295
			c0.515-0.758,1.141-1.479,1.848-2.059c1.365-1.127,1.121-2.525,0.962-4.004c-0.268-2.554-0.484-5.109-0.591-7.672
			c-0.063-1.587,0.065-3.187,0.192-4.771c0.248-3.092,0.604-6.176,0.831-9.266c0.318-4.287,1.69-8.312,3.284-12.224
			c1.485-3.621,3.08-7.22,5.339-10.479c2.229-3.209,4.915-5.884,8.213-7.961c1.821-1.146,3.829-0.957,5.769-0.713
			c3.472,0.436,5.593,2.643,6.672,5.835c0.374,1.112,0.448,2.377,0.431,3.569c-0.021,1.763-0.219,3.524-0.389,5.281
			c-0.081,0.801-0.251,1.596-0.428,2.383c-1.11,5.013-2.736,9.808-5.48,14.22c-1.506,2.426-2.573,5.116-3.928,7.646
			c-1.188,2.213-2.438,4.396-3.771,6.523c-0.997,1.6-2.116,3.133-3.282,4.614c-1.215,1.539-2.574,2.955-3.803,4.479
			c-0.294,0.367-0.556,1.041-0.421,1.429c0.893,2.521,2.542,4.56,4.645,6.135c1.694,1.272,3.638,0.906,5.438,0.047
			c0.94-0.446,1.796-1.065,2.69-1.61c0.297-0.18,0.587-0.363,0.938-0.59c1.025,1.981,2.022,3.866,2.963,5.778
			c0.101,0.211-0.021,0.722-0.204,0.849c-0.854,0.588-1.719,1.213-2.67,1.598c-1.617,0.646-3.283,1.195-4.968,1.654
			c-2.232,0.61-4.377-0.07-6.494-0.713c-2.194-0.662-4.183-1.734-5.728-3.441c-0.792-0.869-1.365-1.938-2.044-2.906
			c-0.155-0.229-0.352-0.428-0.587-0.711c-0.633,0.594-1.264,1.104-1.796,1.699c-2.188,2.434-4.737,4.383-7.753,5.668
			c-2.114,0.898-4.317,1.229-6.569,0.498c-1.521-0.494-3.097-0.893-4.504-1.605C176.812,149.773,175.894,148.788,174.964,148.049z
			 M157.347,137.624c-0.063,0.399-0.078,1.174-0.013,1.31c0.603,1.873,0.603,1.873,1.188,3.022c0.885,1.737,2.67,2.512,4.271,2.974
			c2.392,0.688,4.772-0.253,6.221-2.246c2.062-2.854,3.847-5.927,5.59-8.996c1.135-2,1.951-4.179,2.97-6.248
			c1.51-3.086,2.394-6.277,2.163-9.76c-0.12-1.802-2.128-5.273-4.196-5.716c-0.997-0.213-1.948-0.375-3.059-0.325
			c-1.53,0.063-2.75,0.327-3.686,1.266c-2.012,2.018-4.021,4.09-5.685,6.393c-1.22,1.695-2.009,3.74-2.775,5.711
			c-0.687,1.754-1.163,3.604-1.577,5.439C158.174,133.025,157.849,135.023,157.347,137.624z M109.097,109.87
			c-1.518-0.029-2.684,0.2-3.65,1.086c-0.676,0.612-1.328,1.254-1.939,1.93c-2.605,2.878-4.357,6.228-5.547,9.912
			c-0.504,1.56-1.276,3.027-1.821,4.574c-0.463,1.312-0.843,2.66-1.119,4.021c-0.286,1.407-0.326,2.864-0.616,4.274
			c-0.541,2.633,0.765,5.531,3.104,6.871c1.108,0.639,2.173,0.778,3.299,0.174c1.588-0.856,3.15-1.746,4.309-3.192
			c0.636-0.797,1.373-1.521,1.918-2.379c1.38-2.156,2.708-4.347,3.982-6.562c0.375-0.652,0.479-1.453,0.742-2.173
			c0.351-0.95,0.762-1.878,1.066-2.841c0.07-0.224-0.106-0.681-0.308-0.806c-0.772-0.475-1.68-0.76-2.393-1.307
			c-0.908-0.695-2.137-1.441-2.422-2.406C106.602,117.314,107.065,113.633,109.097,109.87z M203.463,127.75
			c0.085,0.037,0.176,0.076,0.264,0.109c0.688-1.156,1.372-2.326,2.079-3.479c1.513-2.443,3.129-4.834,4.538-7.338
			c1.515-2.682,2.89-5.439,4.229-8.215c1.935-3.988,4.25-7.832,4.815-12.355c0.223-1.779,0.578-3.541,0.729-5.324
			c0.117-1.438-0.594-1.991-1.897-1.364c-1.43,0.684-2.936,1.477-3.999,2.606c-3.635,3.849-6.362,8.279-7.966,13.385
			c-1.213,3.871-2.546,7.724-2.755,11.8C203.325,120.959,203.463,124.357,203.463,127.75z M115.01,114.225
			c-0.093,0.015-0.187,0.027-0.277,0.045c-3.128,2.613-1.156,4.953,0.64,3.388C115.239,116.426,115.126,115.327,115.01,114.225z"/>
		<path d="M278.945,54.899c2.429-0.899,3.942-2.422,4.354-4.946c0.137-0.823,0.798-0.98,1.604-0.717
			c1.256,0.402,2.539,0.735,3.833,1.007c0.753,0.161,1.17,0.529,0.841,1.23c-1.785,3.774-4.044,7.215-7.965,9.06
			c-2.433,1.146-4.981,2.047-7.781,1.943c-1.354-0.052-2.723,0.219-4.08,0.164c-1.436-0.057-2.885-0.216-4.285-0.521
			c-3.438-0.753-6.857-1.63-10.295-2.418c-0.698-0.159-1.33-0.062-1.479,0.895c-0.124,0.788-0.41,1.552-0.604,2.329
			c-0.149,0.61-0.397,0.96-1.111,0.667c-1.407-0.576-2.829-1.115-4.246-1.653c-0.573-0.214-0.704-0.454-0.476-1.111
			c1.176-3.359,2.414-6.705,3.33-10.133c1.333-4.979,3.299-9.721,5.066-14.534c0.951-2.59,1.87-5.205,3.051-7.69
			c0.732-1.527,1.093-3.334,2.563-4.432c0.209-0.154,0.725-0.143,0.945,0.011c1.47,0.997,2.895,2.059,4.335,3.095
			c1.388,1,2.839,1.925,4.154,3.014c1.382,1.142,2.676,2.398,3.928,3.684c0.657,0.672,1.202,1.476,1.693,2.282
			c1.4,2.293,2.906,4.536,3.408,7.262c0.251,1.362,0.729,2.688,0.923,4.057c0.269,1.896-0.286,3.696-0.979,5.448
			C279.423,53.531,279.203,54.185,278.945,54.899z M263.807,35.68c-2.438,6.254-4.875,12.522-7.371,18.933
			c1.174,0.188,2.259,0.515,3.503,0.896c1.931,0.371,5.311,0.855,7.244,0.744c1.78-0.148,2.751-0.562,3.938-1.412
			c1.407-1.263,1.754-6.596,0.983-8.424C270.252,42.03,267.208,38.629,263.807,35.68z"/>
		<path d="M255.142,14.97c-1.068-0.308-2.018-0.603-2.98-0.849c-0.746-0.193-0.944-0.424-0.584-1.255
			c0.353-0.805,0.318-1.775,0.488-2.901c-1.608,0.75-2.913,0.93-4.292,0.55c-2.21-0.606-3.312-3.347-2.114-5.326
			c1.34-2.213,3.037-3.103,5.575-2.562c0.973,0.207,1.92,1.041,2.646,1.808c1.191,1.251,1.658,2.906,1.707,4.602
			c0.052,1.727-0.088,3.459-0.169,5.188C255.41,14.455,255.254,14.678,255.142,14.97z"/>
		<path d="M125.872,13.895c1.785,0,3.755,2.264,3.786,4.301c0.037,2.588-1.912,3.717-3.791,3.792
			c-2.109,0.081-4.693-2.118-4.754-3.827C121.044,16.131,123.54,13.895,125.872,13.895z"/>
	</g>
</g>
</svg>
