<?xml version="1.0" encoding="utf-8"?>
<!-- Generator: Adobe Illustrator 16.0.0, SVG Export Plug-In . SVG Version: 6.00 Build 0)  -->
<!DOCTYPE svg PUBLIC "-//W3C//DTD SVG 1.1//EN" "http://www.w3.org/Graphics/SVG/1.1/DTD/svg11.dtd">
<svg version="1.1" id="Layer_1" xmlns="http://www.w3.org/2000/svg" xmlns:xlink="http://www.w3.org/1999/xlink" x="0px" y="0px"
	 width="501.19px" height="116.457px" viewBox="0.001 2.07 501.19 116.457" enable-background="new 0.001 2.07 501.19 116.457"
	 xml:space="preserve">
<g>
	<g>
		<path d="M61.938,90.93c0,0,4.687-0.095,7.062,0c1.233,0.049,2.419-0.015,3.652,0.001c0.306,0,0.798-0.237,0.89-0.484
			c1.196-3.121,2.328-6.27,3.491-9.404c0.426-1.146,0.893-2.276,1.345-3.414c1.33-3.34,2.646-6.687,3.997-10.02
			c0.864-2.141,1.794-4.257,2.673-6.395c0.903-2.191,1.73-4.418,2.674-6.591c1.653-3.823,3.438-7.592,5.035-11.435
			c0.818-1.968,1.365-4.046,2.022-6.08c0.168-0.528,0.292-1.069,0.479-1.764c-1.881,0.005-3.605,0.297-5.104,1.33
			c-2.605,1.787-4.647,4.154-6.633,6.586c-2.23,2.736-4.582,5.375-6.786,8.132c-0.955,1.189-1.669,2.572-2.501,3.86
			c-0.85,1.322-1.701,2.645-2.572,3.953c-1.322,1.987-2.696,3.938-3.98,5.947c-1.237,1.934-2.382,3.924-3.581,5.883
			c-2.678,4.366-5.362,8.727-8.035,13.092c-0.586,0.955-1.228,1.891-1.665,2.91c-0.385,0.896-1.189,0.864-1.769,0.816
			c-1.706-0.145-4.123-0.044-5.735-0.234c-0.442-0.104-0.617-1.205-0.724-1.67c-0.983-4.293-1.596-8.695-2.514-13.003
			c-0.933-4.382-1.771-8.786-2.805-13.144c-0.82-3.457-1.93-6.845-2.805-10.289c-0.456-1.792-0.674-3.642-1.022-5.458
			c-0.094-0.471-0.287-0.919-0.577-1.404c-6.426,15.681-12.4,31.507-18.344,47.429c2.378,0,4.814,0,7.308,0c0,2.301,0,4.498,0,6.778
			c-8.118,0-16.254,0-24.467,0c0-2.221,0-4.412,0-6.714C1.264,90.128,1.604,90.1,1.945,90.1c2.532-0.007,5.062-0.022,7.593,0.009
			c0.643,0.008,0.975-0.146,1.224-0.809c1.225-3.234,2.484-6.455,3.804-9.651c1.571-3.812,3.265-7.575,4.806-11.397
			c0.861-2.133,1.446-4.375,2.291-6.512c1.091-2.771,2.358-5.467,3.475-8.225c0.64-1.582,1.113-3.229,1.685-4.842
			c1.49-4.209,2.995-8.413,4.485-12.622c0.16-0.456,0.271-0.932,0.438-1.508c-0.605,0-1.119-0.011-1.628,0.001
			c-1.146,0.032-2.288,0.088-3.433,0.11c-1.898,0.035-3.797,0.037-5.697,0.081c-1.335,0.032-2.671,0.158-4.006,0.159
			c-2.58,0.003-4.908,0.856-7.05,2.163c-2.219,1.349-3.681,3.191-3.53,6.047c0.097,1.81,1.184,3.005,2.357,3.953
			c1.263,1.018,2.906,1.566,4.396,2.294c0.208,0.103,0.484,0.103,0.728,0.094c1.778-0.065,2.059,0.329,1.581,2.066
			c-0.331,1.204-0.589,2.431-0.843,3.652c-0.154,0.739-0.598,1.055-1.294,0.9c-2.862-0.635-5.643-1.469-8.112-3.161
			c-1.805-1.233-2.954-2.917-3.76-4.884c-0.771-1.876-1.502-3.743-1.451-5.846c0.085-3.755,1.296-7.012,3.758-9.888
			c1.407-1.644,2.859-3.169,4.971-3.744c2.076-0.565,4.197-1.117,6.329-1.285c3.317-0.262,6.663-0.263,9.997-0.251
			c8.62,0.03,17.238,0.129,25.855,0.202c0.175,0.002,0.35,0.02,0.589,0.034c0,2.326,0,4.619,0,6.991c-3.433,0-6.843,0-10.389,0
			c0.504,2.408,0.99,4.716,1.469,7.023c0.583,2.827,1.078,5.675,1.771,8.475c0.59,2.402,1.515,4.724,2.095,7.128
			c1.073,4.439,1.971,8.92,3.003,13.369c0.426,1.835,1.025,3.627,1.513,5.447c0.191,0.709,0.293,1.441,0.512,2.547
			c1.043-1.734,2.045-3.18,2.824-4.734c1.304-2.597,2.441-5.266,4.479-7.43c0.64-0.676,1.017-1.596,1.543-2.379
			c1.326-1.979,2.707-3.922,3.999-5.922c0.866-1.344,1.492-2.85,2.443-4.128c2.386-3.214,4.84-6.387,7.373-9.489
			c2.169-2.651,4.458-5.208,6.749-7.755c0.766-0.852,1.681-1.572,2.555-2.319c1.58-1.356,3.143-2.74,4.785-4.015
			c1.476-1.144,3.251-1.718,5.087-1.747c5.118-0.079,10.241-0.024,15.359-0.021c0.104,0,0.205,0.034,0.375,0.06
			c0,2.224,0,4.444,0,6.765c-1.549,0-3.07,0.003-4.595-0.001c-0.518-0.002-1.05-0.094-1.549,0.003
			c-0.251,0.049-0.521,0.397-0.631,0.671c-1.442,3.61-2.825,7.244-4.288,10.845c-1.92,4.72-3.951,9.396-5.827,14.133
			c-0.83,2.1-1.347,4.324-2.098,6.461c-0.765,2.166-1.596,4.314-2.479,6.438c-1.368,3.293-2.85,6.543-4.204,9.842
			c-0.993,2.416-1.854,4.885-2.835,7.483c3.461,0,6.659,0,9.91,0c0,2.341,0,4.608,0,6.965l-28.483,0.062L61.938,90.93z"/>
		<path d="M167.603,48.601c-1.445,0-2.932,0-4.571,0c0-2.001-0.038-3.948,0.021-5.889c0.021-0.661,0.602-0.758,1.188-0.755
			c2.104,0.018,4.203,0.007,6.353,0.007c1.117-3.02,2.225-6.021,3.327-9.024c0.1-0.26,0.162-0.532,0.224-0.804
			c0.371-1.664-0.255-1.958,2.182-1.372c1.696,0.408,3.401,0.776,5.104,1.144c0.722,0.154,1.062,0.845,0.692,1.759
			c-0.76,1.888-1.587,3.748-2.39,5.62c-0.425,0.994-0.85,1.985-1.322,3.09c3.825,0,7.513,0,11.274,0c0,2.077,0,4.085,0,6.219
			c-0.523,0-1.051,0-1.57,0c-3.563,0-7.131,0.072-10.694-0.037c-1.329-0.039-1.959,0.452-2.445,1.6
			c-0.997,2.346-2.137,4.633-3.172,6.965c-1.804,4.065-3.659,8.111-5.331,12.232c-1.921,4.734-3.717,9.52-5.448,14.324
			c-0.657,1.812-0.986,3.709-0.594,5.703c0.378,1.932,2.376,3.371,4.582,2.807c1.432-0.365,2.768-1.113,4.107-1.766
			c0.243-0.117,0.494-0.657,0.42-0.91c-1.007-3.426-0.551-6.885-0.417-10.359c0.216-5.562,2.249-10.498,4.865-15.261
			c1.333-2.424,2.747-4.826,4.67-6.834c2.723-2.835,5.848-5.169,9.818-5.795c2.562-0.403,4.999,0.481,7.2,1.863
			c1.094,0.684,2.327,1.234,3.219,2.125c1.429,1.428,2.859,2.958,3.829,4.703c0.633,1.129,0.448,2.717,0.668,4.399
			c0.849-0.836,1.623-1.532,2.318-2.306c2.276-2.538,4.601-5.047,6.761-7.688c1.324-1.62,2.414-3.442,3.542-5.217
			c0.448-0.705,0.718-1.119,1.7-0.644c0.947,0.456,2.094,0.493,3.146,0.734c1.534,0.352,1.63,0.491,1.436,2.213
			c1.14-0.088,2.241-0.223,3.349-0.252c2.164-0.057,4.204,0.442,5.961,1.729c1.365,1.002,2.65,2.109,3.91,3.243
			c1.163,1.045,1.735,2.438,1.947,3.972c0.622,4.548-0.265,8.842-1.892,13.106c-2.132,5.588-4.065,11.252-5.915,16.941
			c-0.692,2.141-1.12,4.423-1.269,6.667c-0.117,1.784,0.767,3.427,2.266,4.552c0.905,0.678,1.637,1.496,2.896,1.809
			c2.365,0.588,4.023-0.467,5.421-1.969c1.132-1.215,1.901-2.767,2.813-4.179c0.368-0.565,0.687-1.161,1.089-1.851
			c1.69,0.748,3.362,1.488,5.313,2.354c-1.021,1.791-1.855,3.604-3.01,5.187c-1.9,2.617-4.341,4.656-7.246,6.191
			c-3.062,1.621-6.096,1.467-9.095,0.123c-1.93-0.865-3.963-1.738-5.102-3.729c-1.866-3.26-3.369-6.663-2.267-10.504
			c0.602-2.1,1.677-4.059,2.446-6.115c0.711-1.893,1.279-3.842,1.944-5.756c1.568-4.547,3.267-9.055,4.702-13.643
			c0.834-2.656,0.533-5.43-0.436-8.023c-0.286-0.771-1.171-1.395-1.897-1.918c-2.438-1.737-5.24-1.635-7.723,0.168
			c-0.421,0.309-0.891,0.549-1.34,0.82c-1.283,0.781-1.56,2.18-1.998,3.428c-1.336,3.793-2.65,7.58-4.369,11.238
			c-1.418,3.023-2.361,6.271-3.585,9.394c-1.082,2.753-2.267,5.468-3.4,8.202c-0.638,1.543-1.352,3.064-1.863,4.65
			c-0.286,0.871-0.764,0.871-1.351,0.604c-1.4-0.64-2.786-1.32-4.122-2.077c-0.228-0.124-0.336-0.773-0.23-1.091
			c0.51-1.486,1.082-2.955,1.688-4.407c0.934-2.246,1.94-4.463,2.863-6.713c1.019-2.486,2.016-4.982,2.948-7.503
			c0.785-2.119,1.46-4.276,2.273-6.679c-1.464,0.735-2.72,1.365-3.972,1.992c-0.626,0.311-1.271,0.584-1.87,0.938
			c-0.265,0.157-0.516,0.442-0.626,0.729c-0.621,1.58-1.151,3.197-1.799,4.768c-1.008,2.449-2.009,4.908-3.156,7.294
			c-0.817,1.69-1.727,3.373-2.854,4.868c-1.438,1.91-2.998,3.773-4.759,5.387c-1.944,1.783-4.226,3.042-7.016,3.293
			c-2.885,0.262-5.438-0.535-7.884-1.896c-0.513-0.285-0.937-0.734-1.402-1.109c-1.403,0.77-2.782,1.597-4.226,2.297
			c-1.874,0.913-3.907,0.762-5.896,0.625c-1.218-0.085-2.492-0.195-3.606-0.635c-2.146-0.844-4.235-1.877-5.289-4.252
			c-0.993,0.806-1.931,1.721-3.012,2.406c-3.171,2.01-6.568,3.209-10.288,1.701c-2.104-0.853-3.956-2.135-4.967-4.343
			c-0.244-0.528-0.75-0.933-1.025-1.263c-1.867,1.55-3.662,3.188-5.611,4.613c-2.232,1.633-4.816,2.643-7.567,2.805
			c-1.456,0.085-3.009-0.332-4.421-0.812c-1.736-0.588-3.479-1.31-5.01-2.298c-0.942-0.608-1.507-1.817-2.214-2.776
			c-0.266-0.354-0.46-0.765-0.826-1.39c-3.085,4.771-7.905,5.187-12.86,5.679c0-2.229-0.017-4.391,0.028-6.551
			c0.003-0.182,0.437-0.535,0.629-0.511c3.05,0.396,4.826-1.472,6.507-3.563c1.952-2.429,4.056-4.744,5.864-7.271
			c2.144-2.993,3.673-6.354,5.133-9.727c1.056-2.436,2.15-6.18,3.12-8.65c0.655-1.68,0.833-2.074,1.394-3.787
			c0.233-0.721,0.5-1.372,0.714-2.288c1.012-2.671,1.248-2.694,3.065-2.114c1.03,0.329,2.089,0.571,3.095,0.953
			c0.872,0.329,1.191,0.833,0.683,1.874c-1.301,2.667-2.518,5.384-3.623,8.138c-1.774,4.416-3.438,8.877-5.136,13.324
			c-1.218,3.182-1.867,6.508-2.429,9.852c-0.213,1.266,0.707,2.773,1.685,3.354c3.02,1.795,5.732,1.036,8.106-1.107
			c1.987-1.797,3.681-3.91,5.597-5.793c1.085-1.065,0.721-2.291,0.58-3.445c-0.469-3.869-0.81-7.729-0.395-11.629
			c0.17-1.584,0.061-3.198,0.266-4.773c0.441-3.408,0.745-6.869,1.599-10.182c0.889-3.465,2.345-6.783,3.574-10.156
			c0.146-0.385,0.456-0.707,0.684-1.064c1.138-1.813,2.344-3.59,3.396-5.453c1.584-2.806,4.111-4.653,6.402-6.787
			c1.997-1.861,4.315-2.232,6.767-2.375c1.898-0.113,3.5,0.947,4.779,2.147c1.573,1.473,3.013,3.202,3.221,5.507
			c0.11,1.191,0.078,2.422-0.081,3.608c-0.297,2.206-0.653,4.407-1.128,6.58c-0.452,2.077-0.947,4.167-1.683,6.153
			c-0.703,1.893-1.729,3.665-2.642,5.477c-1.005,2.004-2.012,4.01-3.079,5.982c-0.583,1.076-1.314,2.074-1.94,3.132
			c-0.803,1.354-1.556,2.735-2.344,4.099c-1.067,1.846-2.149,3.684-3.225,5.523c-0.688,1.181-1.318,2.398-2.074,3.535
			c-1.175,1.763-2.447,3.461-3.646,5.213c-0.177,0.257-0.297,0.693-0.201,0.966c0.807,2.326,1.884,4.539,4.157,5.728
			c0.602,0.312,1.708-0.004,2.438-0.34c2.433-1.107,3.906-3.218,5.242-5.42c1.163-1.914,2.241-3.882,3.458-5.763
			c2.02-3.136,3.489-6.535,4.903-9.956c1.4-3.389,2.744-6.801,4.076-10.217c0.549-1.399,0.982-2.838,1.492-4.25
			C165.782,53.55,166.688,51.102,167.603,48.601z M189.858,58.779c-0.105-0.068-0.208-0.134-0.312-0.201
			c-1.07,0.405-2.345,0.571-3.168,1.269c-1.598,1.356-3.241,2.829-4.327,4.587c-1.584,2.562-2.878,5.348-3.956,8.167
			c-1.155,3.015-2.831,5.917-2.704,9.325c0.06,1.615-0.188,3.271,0.092,4.842c0.438,2.453,2.182,4.023,4.469,4.766
			c2.31,0.752,4.346-0.179,5.848-1.92c1.396-1.613,2.539-3.449,3.763-5.205c2.146-3.078,3.736-6.402,4.3-10.162
			c-0.612-0.26-1.284-0.535-1.945-0.834c-2.496-1.131-3.855-3.021-3.627-5.812c0.131-1.63,0.441-3.249,0.729-4.863
			C189.251,61.408,189.572,60.096,189.858,58.779z M137.531,73.694c0.067,0.021,0.138,0.042,0.205,0.063
			c0.208-0.346,0.406-0.7,0.629-1.036c1.842-2.777,3.733-5.522,5.52-8.335c1.521-2.393,3.017-4.811,4.341-7.312
			c1.174-2.219,2.025-4.61,3.149-6.859c1.422-2.844,3.056-5.588,3.203-8.894c0.053-1.183,0.305-2.356,0.371-3.537
			c0.057-1.061-0.862-2.021-1.884-1.761c-1.114,0.285-2.376,0.714-3.146,1.499c-1.765,1.796-3.472,3.714-4.824,5.825
			c-1.906,2.972-2.98,6.352-3.999,9.737c-1.352,4.507-2.631,9.017-2.921,13.75c-0.07,1.156-0.275,2.301-0.386,3.455
			C137.68,71.419,137.616,72.557,137.531,73.694z M196.36,62.108c-2.765,3.335-1.789,4.896,0.421,4.815
			C197.216,65.328,197.198,63.796,196.36,62.108z"/>
		<path d="M278.945,81.899c2.429-0.899,3.941-2.422,4.354-4.946c0.137-0.822,0.797-0.979,1.604-0.717
			c1.256,0.402,2.539,0.735,3.832,1.008c0.754,0.16,1.171,0.528,0.842,1.229c-1.785,3.774-4.044,7.215-7.965,9.06
			c-2.434,1.146-4.981,2.047-7.781,1.943c-1.354-0.053-2.723,0.219-4.08,0.164c-1.436-0.057-2.885-0.217-4.285-0.521
			c-3.439-0.752-6.857-1.629-10.295-2.418c-0.699-0.158-1.33-0.062-1.48,0.896c-0.123,0.788-0.409,1.552-0.603,2.329
			c-0.149,0.609-0.397,0.959-1.112,0.666c-1.407-0.575-2.829-1.114-4.246-1.652c-0.573-0.214-0.704-0.454-0.475-1.111
			c1.175-3.359,2.414-6.705,3.33-10.133c1.333-4.979,3.299-9.721,5.066-14.533c0.951-2.591,1.869-5.205,3.051-7.69
			c0.732-1.527,1.093-3.334,2.562-4.432c0.209-0.154,0.726-0.143,0.946,0.011c1.47,0.997,2.894,2.059,4.335,3.095
			c1.387,1,2.839,1.925,4.154,3.015c1.382,1.141,2.676,2.397,3.928,3.684c0.657,0.672,1.202,1.476,1.693,2.281
			c1.4,2.293,2.906,4.537,3.408,7.263c0.25,1.362,0.729,2.688,0.922,4.057c0.27,1.896-0.285,3.696-0.979,5.448
			C279.423,80.531,279.203,81.185,278.945,81.899z M263.807,62.68c-2.437,6.254-4.875,12.522-7.371,18.933
			c1.174,0.188,2.26,0.516,3.504,0.896c1.931,0.371,5.311,0.855,7.244,0.744c1.78-0.148,2.75-0.562,3.938-1.412
			c1.406-1.264,1.754-6.596,0.982-8.424C270.252,69.031,267.208,65.628,263.807,62.68z"/>
		<path d="M255.143,41.97c-1.068-0.308-2.018-0.603-2.98-0.849c-0.746-0.193-0.944-0.424-0.584-1.255
			c0.352-0.805,0.318-1.775,0.488-2.901c-1.608,0.75-2.914,0.93-4.292,0.55c-2.21-0.606-3.312-3.347-2.114-5.326
			c1.34-2.213,3.037-3.103,5.574-2.562c0.974,0.207,1.92,1.041,2.647,1.808c1.191,1.251,1.658,2.906,1.707,4.602
			c0.052,1.727-0.088,3.459-0.169,5.188C255.41,41.455,255.254,41.678,255.143,41.97z"/>
		<path d="M125.872,40.895c1.785,0,3.755,2.264,3.786,4.301c0.037,2.588-1.912,3.717-3.791,3.792
			c-2.109,0.081-4.693-2.118-4.754-3.827C121.044,43.131,123.54,40.895,125.872,40.895z"/>
	</g>
</g>
<path d="M365.603,18.985c0.003-2.356,0.006-4.624,0.008-6.965c-3.251-0.003-6.449-0.007-9.91-0.01
	c0.982-2.598,1.848-5.065,2.843-7.479l-6.341-2.46c-1.167,3.134-2.302,6.279-3.501,9.4c-0.092,0.246-0.585,0.483-0.892,0.482
	c-1.232-0.016-2.466-0.142-3.698-0.192c-2.375-0.097-4.801,0.092-7.116-0.312c-3.239-0.569-6.397-0.289-9.57,0.163
	c-2.826,0.402-5.239,1.917-7.747,3.139c-0.616,0.299-1.244,0.761-1.626,1.316c-2.288,3.323-3.855,6.918-3.738,11.055
	c0.097,3.4,1.299,6.393,3.754,8.74c1.112,1.066,2.527,1.837,3.87,2.637c1.941,1.16,4.103,1.487,6.426,1.489
	c0.138-2.156,0.273-4.236,0.409-6.285c-0.317-0.132-0.537-0.278-0.77-0.309c-2.009-0.278-3.665-1.266-4.92-2.767
	c-1.432-1.708-2.423-3.559-1.561-6.007c0.702-1.988,1.313-4.053,3.296-5.011c1.184-0.574,2.678-0.675,4.034-0.696
	c3.337-0.05,6.681,0.077,10.021,0.108c2.313,0.022,4.631,0.009,7.145,0.012c-9.32,23.937-18.604,47.777-27.896,71.636
	c-4.287-0.004-8.567-0.135-12.839,0.035c-2.203,0.092-4.409,0.078-6.618,0.907c-3.838,1.44-6.414,4.054-7.903,7.666
	c-1.111,2.71-1.354,5.612-0.751,8.621c0.767,3.849,3.228,6.224,6.423,7.909c1.885,0.998,4.04,1.513,6.104,2.15
	c1.558,0.48,3.158,0.813,4.812,0.346c3.054-0.872,5.562-2.352,7.567-5c2.269-3.004,3.934-6.245,5.324-9.678
	c0.771-1.906,1.448-3.851,2.15-5.781c0.236-0.652,0.526-0.996,1.348-0.991c7.912,0.054,15.828,0.046,23.744,0.06
	c0.31,0,0.613,0.026,1.082,0.049c-1.142,3-2.241,5.897-3.352,8.814c0.152,0.145,0.193,0.213,0.252,0.237
	c1.379,0.569,2.762,1.138,4.147,1.702c1.316,0.533,1.514,0.459,2.062-0.869c0.868-2.102,1.714-4.208,2.579-6.312
	c0.584-1.418,1.226-2.812,1.777-4.246c1.317-3.424,2.598-6.867,3.939-10.438c-1.705-0.416-3.248-0.775-4.785-1.172
	c-1.469-0.377-1.716-0.23-2.196,1.197c-0.479,1.424-1.043,2.818-1.525,4.244c-0.237,0.688-0.672,0.836-1.354,0.812
	c-2.94-0.109-5.884-0.206-8.824-0.23c-5.133-0.039-10.271-0.019-15.403-0.023c-0.377,0-0.753,0-1.424-0.002
	c9.774-23.957,18.801-47.977,28.502-71.7C357.365,18.977,361.486,18.981,365.603,18.985z M310.831,107.933
	c-2.075,2.77-4.547,3.376-7.877,2.511c-1.218-0.313-2.433-0.832-3.499-1.501c-2.747-1.729-3.344-6.066-1.201-8.762
	c0.803-1.014,1.854-1.85,2.862-2.678c0.344-0.282,0.901-0.406,1.366-0.418c3.837-0.1,7.674-0.153,11.51-0.219
	c0.562-0.008,1.119,0,1.786,0C314.52,100.832,313.271,104.667,310.831,107.933z"/>
<path d="M450.07,96.05c-1.967,1.285-3.829,2.744-5.896,3.799c-2.241,1.139-4.716,1.225-7.251,0.971
	c-2.183-0.223-4.041-1.016-5.586-2.432c-2.489-2.283-4.563-4.887-5.185-8.361c-0.084-0.479-0.188-0.957-0.293-1.498
	c-0.22,0.094-0.46,0.32-0.576,0.439c-1.354,1.4-2.604,2.336-4.104,3.379c-1.673,1.162-3.2,2.551-4.95,3.57
	c-2.22,1.295-4.457,2.814-7.034,3.146c-4.083,0.521-8.226,0.521-11.332-2.823c-2.191-2.359-4.111-5.203-3.939-8.628
	c0.104-2.032,0.179-4.036,0.631-5.981c0.677-2.879,1.839-5.646,2.809-8.457c0.21-0.618,0.483-1.219,0.755-1.891
	c-1.042,0.049-1.437,0.53-1.737,1.452c-0.962,2.964-1.984,5.896-3.687,8.569c-1.329,2.089-2.312,4.395-3.529,6.558
	c-1.907,3.38-4.175,6.438-7.311,8.854c-1.834,1.412-3.737,2.348-6.006,2.049c-2.472-0.324-4.84-1.16-6.932-2.562
	c-2.271-1.522-3.867-3.59-4.812-6.188c-1.358-3.736-1.424-7.617-1.214-11.486c0.099-1.748,0.762-3.469,1.238-5.186
	c0.742-2.652,1.27-5.418,2.399-7.898c1.29-2.846,3.115-5.451,4.771-8.127c0.494-0.806,1.172-1.498,1.779-2.231
	c2.409-2.904,5.539-4.523,9.231-5.013c1.108-0.147,2.285-0.01,3.397,0.188c1.367,0.246,2.742,0.589,4.046,1.074
	c2.357,0.879,4.1,2.609,5.525,4.605c1.001,1.408,1.428,2.201,2.04,3.846c0.504,1.17,0.636,1.814,0.812,3.023
	c0.012,0.352,0.188,1.418,0.226,1.928c0.481-0.508,0.988-0.996,1.448-1.523c3.502-4.047,7.538-7.412,12.438-9.64
	c2.278-1.035,4.678-1.244,7.192-1.09c2.107,0.129,3.971,0.723,5.811,1.643c2.92,1.459,4.999,5.556,4.253,9.253
	c-0.255,1.266-0.39,2.609-0.82,3.824c-0.113,0.324-0.271,0.795-0.555,0.752c-2.21-0.342-4.405-0.789-6.722-1.227
	c0.201-1.191,0.438-2.311,0.572-3.439c0.194-1.631-0.966-3.889-2.615-4.434c-1.967-0.645-3.968-0.656-5.81,0.035
	c-1.174,0.439-2.146,1.537-3.073,2.473c-2.108,2.133-3.279,4.865-4.432,7.566c-1.439,3.371-2.788,6.785-4.055,10.23
	c-0.709,1.92-1.128,3.68-1.501,5.906c-0.377,2.521,0.339,3.59,1.675,4.928c1.968,1.969,4.464,1.875,6.892,1.361
	c3.929-0.832,7.259-2.943,10.355-5.404c1.842-1.467,3.581-3.062,5.403-4.549c1.859-1.52,2.082-3.729,2.604-5.822
	c0.934-3.779,2.217-7.424,3.812-10.988c2.125-4.74,5.604-8.201,10.015-10.596c4.689-2.547,9.615-2.621,14.297,0.321
	c1.271,0.804,2.398,1.846,3.6,2.779c0.243-0.826,0.438-1.597,0.7-2.351c0.223-0.647,0.649-0.873,1.354-0.59
	c1.588,0.641,3.18,1.254,4.786,1.826c0.805,0.285,0.912,0.68,0.569,1.439c-1.517,3.377-2.978,6.781-4.482,10.166
	c-0.525,1.18-1.205,2.297-1.673,3.496c-0.916,2.338-1.719,4.723-2.592,7.076c-0.562,1.51-1.287,2.965-1.725,4.506
	c-0.867,3.086-0.912,6.135,0.682,9.086c1.062,1.971,3.783,2.809,6.135,1.707c2.124-0.998,4.002-2.299,5.346-4.295
	c0.514-0.758,1.14-1.479,1.847-2.059c1.365-1.127,1.121-2.525,0.962-4.004c-0.267-2.555-0.484-5.109-0.591-7.672
	c-0.063-1.588,0.066-3.188,0.193-4.771c0.247-3.092,0.603-6.176,0.831-9.266c0.317-4.287,1.689-8.312,3.283-12.224
	c1.485-3.621,3.08-7.219,5.339-10.48c2.229-3.208,4.915-5.883,8.214-7.961c1.82-1.146,3.828-0.957,5.768-0.713
	c3.472,0.436,5.593,2.643,6.672,5.834c0.374,1.113,0.448,2.377,0.431,3.57c-0.021,1.763-0.219,3.524-0.389,5.281
	c-0.081,0.801-0.251,1.596-0.428,2.383c-1.11,5.013-2.736,9.808-5.48,14.22c-1.506,2.426-2.572,5.115-3.928,7.646
	c-1.188,2.213-2.437,4.396-3.77,6.523c-0.997,1.599-2.117,3.133-3.283,4.613c-1.214,1.539-2.574,2.955-3.802,4.48
	c-0.295,0.367-0.557,1.041-0.422,1.428c0.893,2.521,2.542,4.561,4.645,6.135c1.695,1.273,3.638,0.906,5.438,0.047
	c0.94-0.445,1.797-1.064,2.69-1.609c0.297-0.18,0.587-0.363,0.939-0.59c1.024,1.98,2.021,3.865,2.963,5.777
	c0.1,0.211-0.021,0.723-0.204,0.85c-0.855,0.588-1.72,1.213-2.67,1.598c-1.618,0.646-3.284,1.195-4.969,1.654
	c-2.232,0.609-4.377-0.07-6.493-0.713c-2.195-0.662-4.184-1.734-5.729-3.441c-0.792-0.869-1.365-1.938-2.044-2.906
	c-0.155-0.229-0.351-0.428-0.587-0.711c-0.633,0.594-1.263,1.104-1.796,1.699c-2.188,2.434-4.737,4.383-7.753,5.668
	c-2.114,0.898-4.317,1.229-6.569,0.498c-1.521-0.494-3.097-0.893-4.504-1.605C451.919,97.773,451.001,96.789,450.07,96.05z
	 M432.454,85.625c-0.063,0.398-0.078,1.174-0.012,1.309c0.602,1.873,0.602,1.873,1.188,3.023c0.885,1.736,2.67,2.512,4.271,2.973
	c2.391,0.688,4.771-0.252,6.22-2.246c2.062-2.854,3.847-5.926,5.59-8.996c1.135-2,1.951-4.178,2.97-6.248
	c1.511-3.086,2.395-6.277,2.163-9.76c-0.12-1.801-2.128-5.273-4.195-5.715c-0.997-0.213-1.948-0.375-3.06-0.326
	c-1.53,0.064-2.75,0.328-3.685,1.266c-2.013,2.018-4.022,4.09-5.686,6.393c-1.22,1.695-2.009,3.74-2.774,5.711
	c-0.688,1.755-1.163,3.604-1.577,5.439C433.28,81.025,432.956,83.023,432.454,85.625z M384.204,57.871
	c-1.517-0.029-2.683,0.199-3.65,1.086c-0.676,0.611-1.328,1.254-1.938,1.93c-2.606,2.877-4.358,6.227-5.547,9.912
	c-0.504,1.559-1.277,3.027-1.822,4.574c-0.462,1.311-0.842,2.66-1.119,4.021c-0.286,1.407-0.326,2.864-0.616,4.274
	c-0.541,2.633,0.766,5.531,3.104,6.871c1.107,0.639,2.172,0.778,3.298,0.174c1.588-0.856,3.151-1.746,4.309-3.192
	c0.637-0.797,1.373-1.522,1.918-2.379c1.381-2.156,2.708-4.347,3.982-6.563c0.375-0.652,0.479-1.453,0.743-2.173
	c0.35-0.95,0.761-1.877,1.065-2.84c0.07-0.224-0.105-0.681-0.308-0.806c-0.772-0.475-1.679-0.76-2.392-1.307
	c-0.908-0.695-2.138-1.441-2.423-2.406C381.709,65.314,382.172,61.634,384.204,57.871z M478.569,75.751
	c0.085,0.037,0.175,0.076,0.263,0.109c0.688-1.156,1.372-2.326,2.079-3.479c1.513-2.444,3.129-4.834,4.539-7.338
	c1.514-2.683,2.889-5.44,4.229-8.215c1.936-3.989,4.25-7.833,4.815-12.356c0.223-1.778,0.579-3.541,0.729-5.324
	c0.117-1.438-0.594-1.991-1.897-1.364c-1.429,0.684-2.936,1.477-3.999,2.606c-3.634,3.849-6.362,8.28-7.965,13.386
	c-1.213,3.871-2.546,7.723-2.755,11.799C478.431,68.96,478.569,72.357,478.569,75.751z M390.116,62.226
	c-0.093,0.014-0.188,0.027-0.278,0.045c-3.128,2.613-1.156,4.953,0.64,3.387C390.345,64.427,390.232,63.328,390.116,62.226z"/>
</svg>
